<?xml version="1.0" encoding="UTF-8"?>
<svg width="200px" height="200px" viewBox="0 0 200 200" version="1.1" xmlns="http://www.w3.org/2000/svg">
    <title>CrazyGames Logo</title>
    <g fill="#6366F1" stroke="none">
        <circle cx="100" cy="100" r="90" />
        <path fill="#FFFFFF" d="M70,65 C65,65 60,70 60,75 L60,125 C60,130 65,135 70,135 L130,135 C135,135 140,130 140,125 L140,75 C140,70 135,65 130,65 L70,65 Z M130,80 L130,120 L70,120 L70,80 L130,80 Z" />
        <rect fill="#FFFFFF" x="85" y="90" width="10" height="20" rx="5" />
        <rect fill="#FFFFFF" x="105" y="90" width="10" height="20" rx="5" />
        <path fill="#FFFFFF" d="M85,65 L85,50 C85,45 90,40 95,40 L105,40 C110,40 115,45 115,50 L115,65 L105,65 L105,55 L95,55 L95,65 L85,65 Z" />
    </g>
</svg> 